<?xml version="1.0" encoding="UTF-8" standalone="no"?>
<!DOCTYPE svg PUBLIC "-//W3C//DTD SVG 1.1//EN"
 "http://www.w3.org/Graphics/SVG/1.1/DTD/svg11.dtd">
<!-- Generated by graphviz version 2.40.1 (20161225.0304)
 -->
<!-- Title: %0 Pages: 1 -->
<svg width="476pt" height="124pt"
 viewBox="0.00 0.00 476.00 123.84" xmlns="http://www.w3.org/2000/svg" xmlns:xlink="http://www.w3.org/1999/xlink">
<g id="graph0" class="graph" transform="scale(1 1) rotate(0) translate(4 119.843)">
<title>%0</title>
<polygon fill="#ffffff" stroke="transparent" points="-4,4 -4,-119.843 472,-119.843 472,4 -4,4"/>
<!-- x&#45;&gt;y -->
<g id="edge3" class="edge">
<title>x&#45;&gt;y</title>
<path fill="none" stroke="#000000" d="M108.2854,-25.843C174.5226,-25.843 286.1232,-25.843 354.5999,-25.843"/>
<polygon fill="#000000" stroke="#000000" points="354.8624,-27.5931 359.8624,-25.843 354.8624,-24.0931 354.8624,-27.5931"/>
<text text-anchor="start" x="156.6389" y="-12" font-family="Helvetica,sans-Serif" font-style="italic" font-size="10.00" fill="#000000">Direct effect:</text>
<text text-anchor="start" x="212.7569" y="-12" font-family="Helvetica,sans-Serif" font-size="10.00" fill="#000000"> &#160;0.66*** [0.45, 0.87] </text>
<text text-anchor="start" x="158.5789" y="-2" font-family="Helvetica,sans-Serif" font-size="10.00" fill="#000000"> </text>
<text text-anchor="start" x="161.3579" y="-2" font-family="Helvetica,sans-Serif" font-style="italic" font-size="10.00" fill="#000000">Total effect: </text>
<text text-anchor="start" x="216.3749" y="-2" font-family="Helvetica,sans-Serif" font-size="10.00" fill="#000000"> 0.73*** [0.52, 0.94]</text>
</g>
<!-- x&#45;&gt;M1 -->
<g id="edge1" class="edge">
<title>x&#45;&gt;M1</title>
<path fill="none" stroke="#000000" d="M99.4216,-44.0117C125.2075,-54.326 157.5249,-67.253 184.027,-77.8538"/>
<polygon fill="#000000" stroke="#000000" points="183.6127,-79.5728 188.905,-79.805 184.9126,-76.3232 183.6127,-79.5728"/>
</g>
<!-- M1&#45;&gt;y -->
<g id="edge2" class="edge">
<title>M1&#45;&gt;y</title>
<path fill="none" stroke="#000000" d="M279.4216,-79.6744C305.2075,-69.36 337.5249,-56.4331 364.027,-45.8322"/>
<polygon fill="#000000" stroke="#000000" points="364.9126,-47.3629 368.905,-43.881 363.6127,-44.1132 364.9126,-47.3629"/>
</g>
<!-- x -->
<g id="node1" class="node">
<title>x</title>
<polygon fill="#ffffff" stroke="#000000" points="108,-43.843 0,-43.843 0,-7.843 108,-7.843 108,-43.843"/>
<text text-anchor="start" x="37.328" y="-22.843" font-family="Helvetica,sans-Serif" font-size="10.00" fill="#000000">Gender</text>
</g>
<!-- y -->
<g id="node2" class="node">
<title>y</title>
<polygon fill="#ffffff" stroke="#000000" points="468,-43.843 360,-43.843 360,-7.843 468,-7.843 468,-43.843"/>
<text text-anchor="start" x="401.498" y="-28.843" font-family="Helvetica,sans-Serif" font-size="10.00" fill="#000000">Total </text>
<text text-anchor="start" x="396.2225" y="-16.843" font-family="Helvetica,sans-Serif" font-size="10.00" fill="#000000"> Sexism</text>
</g>
<!-- M1 -->
<g id="node3" class="node">
<title>M1</title>
<polygon fill="#ffffff" stroke="#000000" points="288,-115.843 180,-115.843 180,-79.843 288,-79.843 288,-115.843"/>
<text text-anchor="start" x="187.329" y="-99.843" font-family="Helvetica,sans-Serif" font-size="10.00" fill="#000000">Historical Knowledge</text>
<text text-anchor="start" x="196.479" y="-89.843" font-family="Helvetica,sans-Serif" font-weight="bold" font-size="10.00" fill="#000000">0.07</text>
<text text-anchor="start" x="215.935" y="-89.843" font-family="Helvetica,sans-Serif" font-size="10.00" fill="#000000"> &#160;[0.02, 0.13]</text>
</g>
<!-- M1_a -->
<g id="node4" class="node">
<title>M1_a</title>
<polygon fill-opacity="0.0" stroke="transparent" points="115.2,-87.043 79.2,-87.043 79.2,-51.043 115.2,-51.043 115.2,-87.043"/>
<text text-anchor="start" x="83.583" y="-72.043" font-family="Helvetica,sans-Serif" font-size="10.00" fill="#000000">0.44**</text>
<text text-anchor="start" x="72.186" y="-60.043" font-family="Helvetica,sans-Serif" font-size="10.00" fill="#000000">[0.15, 0.73]</text>
</g>
<!-- M1_b -->
<g id="node5" class="node">
<title>M1_b</title>
<polygon fill-opacity="0.0" stroke="transparent" points="403.2,-87.043 367.2,-87.043 367.2,-51.043 403.2,-51.043 403.2,-87.043"/>
<text text-anchor="start" x="369.6385" y="-72.043" font-family="Helvetica,sans-Serif" font-size="10.00" fill="#000000">0.16***</text>
<text text-anchor="start" x="360.186" y="-60.043" font-family="Helvetica,sans-Serif" font-size="10.00" fill="#000000">[0.08, 0.23]</text>
</g>
</g>
</svg>

